PathFileType  4	(X/Y/Z) C:\Users\antoi\Documents\MyRepositories\mobilecap\ResultsAnalysis
DataRate	CameraRate	NumFrames	NumMarkers	Units	OrigDataRate	OrigDataStartFrame	OrigNumFrames
100.0	100.0	4	51	mm	100.0	1	299
Frame#	Time	r_knee			r_shank_antsup			r_ankle			r_calc			r_5meta			r_toe			L_knee			L_shank_antsup			L_ankle			L_calc			L_5meta			L_toe			r_sh2			r_sh3			r_sh4			L_sh2			L_sh3			r_thigh1			r_thigh2			r_thigh3			r_thigh4			r_thigh5			L_thigh1			L_thigh2			L_thigh3			L_thigh4			r.ASIS			r.PSIS			L.ASIS			L.PSIS			C7			R_Shoulder			L_Shoulder			R_Sternum			L_Sternum			R_humerus			R_elbow_med			R_elbow_lat			R_forearm			R_wrist_radius			R_wrist_ulna			L_humerus			L_elbow_med			L_elbow_lat			L_forearm			L_wrist_radius			L_wrist_ulna			R_HJC			L_HJC			R_HJC_reg			L_HJC_reg			
		X1	Y1	Z1	X2	Y2	Z2	X3	Y3	Z3	X4	Y4	Z4	X5	Y5	Z5	X6	Y6	Z6	X7	Y7	Z7	X8	Y8	Z8	X9	Y9	Z9	X10	Y10	Z10	X11	Y11	Z11	X12	Y12	Z12	X13	Y13	Z13	X14	Y14	Z14	X15	Y15	Z15	X16	Y16	Z16	X17	Y17	Z17	X18	Y18	Z18	X19	Y19	Z19	X20	Y20	Z20	X21	Y21	Z21	X22	Y22	Z22	X23	Y23	Z23	X24	Y24	Z24	X25	Y25	Z25	X26	Y26	Z26	X27	Y27	Z27	X28	Y28	Z28	X29	Y29	Z29	X30	Y30	Z30	X31	Y31	Z31	X32	Y32	Z32	X33	Y33	Z33	X34	Y34	Z34	X35	Y35	Z35	X36	Y36	Z36	X37	Y37	Z37	X38	Y38	Z38	X39	Y39	Z39	X40	Y40	Z40	X41	Y41	Z41	X42	Y42	Z42	X43	Y43	Z43	X44	Y44	Z44	X45	Y45	Z45	X46	Y46	Z46	X47	Y47	Z47	X48	Y48	Z48	X49	Y49	Z49	X50	Y50	Z50	X51	Y51	Z51	

1	0.00000000	-1220.72127	781.03154	-417.09462	-1188.27200	669.02988	-433.41806	-1258.41883	398.08363	-453.20927	-1306.49940	358.85185	-505.36233	-1144.61633	348.98896	-418.89426	-1108.30237	367.24408	-462.38110	-1217.47002	785.23415	-754.94572	-1182.26898	682.84132	-711.83458	-1261.92395	397.85473	-735.11428	-1303.95604	367.75146	-699.47942	-1142.77332	346.51563	-752.22534	-1103.11108	366.78180	-699.99365	-1199.52616	558.50339	-446.28972	-1244.26460	668.38778	-382.56981	-1270.78509	561.02211	-404.52555	-1233.52348	704.17273	-781.91394	-1244.73978	583.60082	-791.64121	-1124.62895	1078.81484	-435.18414	-1122.83468	970.85516	-426.33134	-1167.29439	946.41810	-382.75442	-1226.67949	1077.00633	-390.15392	-1221.53083	962.88379	-381.45822	-1136.24211	1075.52446	-757.64376	-1129.39300	933.12055	-756.58263	-1243.29854	1071.83366	-794.57192	-1237.36626	930.86592	-784.96591	-1104.79410	1238.93773	-467.44705	-1284.24502	1303.97087	-535.00245	-1101.77506	1240.07223	-713.54233	-1286.31766	1306.24148	-652.87344	-1268.08548	1752.91164	-589.83866	-1218.43559	1712.54239	-436.35177	-1215.16532	1721.87847	-747.99508	-1148.18744	1695.41015	-569.46930	-1147.46583	1695.92561	-612.46582	-1195.03611	1583.62285	-373.60377	-1259.34248	1384.92116	-428.13391	-1234.81797	1391.20088	-356.54704	-1173.29075	1280.27601	-341.54890	-1133.34737	1183.79624	-345.64795	-1166.23593	1174.31347	-328.02739	-1188.23754	1569.70302	-809.09581	-1252.54479	1375.12595	-749.96467	-1230.19152	1385.40351	-823.12916	-1173.97500	1305.10429	-845.19513	-1123.69454	1182.74644	-835.54705	-1150.94217	1175.14038	-853.35083	-1203.70285	1178.98952	-494.72218	-1198.17407	1176.36024	-684.00098	-1183.29264	1176.96325	-501.74408	-1186.14797	1180.09129	-664.12568	
2	0.01000000	-1221.08999	780.78967	-417.72143	-1188.38669	669.11445	-433.38941	-1258.35025	398.14096	-453.15560	-1306.46277	359.05204	-505.38632	-1144.63985	348.94224	-418.99950	-1108.31814	367.21947	-462.36488	-1217.47957	785.12860	-754.92408	-1182.29452	683.02521	-712.01926	-1261.94255	397.84270	-735.09771	-1303.99938	367.62946	-699.25789	-1142.80761	346.56976	-752.25071	-1102.99196	366.86894	-700.06500	-1199.54309	558.50409	-446.30564	-1244.47517	668.26542	-382.60622	-1270.84238	561.05813	-404.53863	-1233.66463	704.20196	-781.85592	-1244.82115	583.55161	-791.61749	-1124.80841	1078.76797	-435.11137	-1122.92526	970.80341	-426.33195	-1167.48999	946.26743	-382.82181	-1226.88286	1076.94552	-390.23354	-1221.70350	962.83249	-381.57475	-1136.53550	1075.77903	-757.47495	-1129.70746	933.13758	-756.62781	-1243.62017	1071.98438	-794.85538	-1237.59013	930.82195	-784.83555	-1104.96710	1238.82870	-467.50314	-1284.38503	1304.06141	-534.86812	-1102.05030	1240.03545	-713.63640	-1286.37459	1306.27097	-652.67447	-1267.14481	1752.98009	-589.98187	-1217.71225	1712.66721	-436.17992	-1214.47266	1721.97418	-747.67731	-1147.50778	1695.26653	-569.38489	-1146.88598	1695.61292	-612.61070	-1194.50969	1583.67143	-373.51972	-1259.81175	1385.01156	-427.92236	-1234.95312	1391.37806	-356.45876	-1173.71009	1280.23927	-341.37844	-1134.07411	1183.55939	-345.50684	-1166.99382	1174.32711	-327.71184	-1187.84896	1569.71402	-809.05196	-1252.26621	1375.28184	-749.68878	-1230.14028	1385.51768	-822.92809	-1174.06716	1305.11177	-845.18984	-1124.14051	1182.63400	-835.74009	-1151.28684	1175.00617	-853.20671	-1203.87848	1178.96034	-494.69955	-1198.48109	1176.38635	-683.98289	-1183.63501	1177.01305	-501.82847	-1186.37786	1180.05917	-664.23801	
3	0.02000000	-1221.21589	780.97747	-417.40819	-1188.49223	669.16501	-433.37026	-1258.29670	398.12063	-453.12775	-1306.40978	359.07936	-505.39360	-1144.65515	348.91942	-419.03693	-1108.32002	367.21635	-462.36066	-1217.62262	785.13825	-754.91228	-1182.38587	683.14312	-712.10594	-1261.95707	397.82253	-735.06461	-1303.99221	367.66841	-699.34762	-1142.81768	346.59490	-752.26262	-1102.95111	366.87221	-700.06879	-1199.65114	558.52356	-446.26978	-1244.66791	668.25733	-382.43990	-1270.89509	561.09325	-404.51196	-1233.82789	704.21814	-781.77604	-1244.91332	583.60674	-791.66858	-1125.03864	1078.79233	-435.08988	-1123.09649	970.76545	-426.35290	-1167.69785	946.18044	-382.88784	-1227.12163	1076.96121	-390.21263	-1221.87119	962.78839	-381.56952	-1136.94589	1075.78589	-757.40392	-1129.99860	933.16451	-756.64631	-1244.00227	1072.19229	-795.36335	-1237.94543	930.83558	-784.80081	-1105.12107	1238.76892	-467.45985	-1284.51649	1304.14853	-534.74472	-1102.27139	1239.95652	-713.69937	-1286.50646	1306.33558	-652.52084	-1266.27636	1753.08597	-590.00733	-1216.95390	1712.74681	-436.01663	-1213.71061	1721.96675	-747.45260	-1146.92686	1695.15774	-569.29388	-1146.21315	1695.36190	-612.52318	-1194.03028	1583.69311	-373.45221	-1260.18274	1385.18583	-427.65117	-1235.09556	1391.60513	-356.27163	-1174.13804	1280.24616	-341.17959	-1134.80306	1183.45917	-345.23528	-1167.71929	1174.39417	-327.32763	-1187.38593	1569.68096	-808.91289	-1252.09705	1375.44814	-749.54114	-1230.08041	1385.67939	-822.81425	-1174.22716	1305.22381	-845.21547	-1124.54071	1182.61926	-835.92941	-1151.57700	1174.91599	-853.10235	-1204.06424	1178.97096	-494.63070	-1198.76477	1176.39315	-683.91677	-1183.88168	1176.99788	-501.78950	-1186.62700	1180.01505	-664.26913	
4	0.03000000	-1221.21042	781.36950	-416.60024	-1188.61401	669.18821	-433.37299	-1258.29325	398.07205	-453.13714	-1306.38978	358.99850	-505.39408	-1144.65554	348.92153	-419.02142	-1108.32092	367.22216	-462.36193	-1217.80793	785.16571	-754.90702	-1182.51379	683.21323	-712.12460	-1261.97304	397.79439	-735.04774	-1303.97701	367.72344	-699.46687	-1142.81760	346.59114	-752.26097	-1102.95324	366.83713	-700.02867	-1199.80430	558.56233	-446.20350	-1244.85205	668.30564	-382.25537	-1270.96273	561.05218	-404.49134	-1234.00048	704.22181	-781.70826	-1245.01396	583.73135	-791.76846	-1125.27157	1078.84791	-435.10987	-1123.30186	970.71200	-426.44037	-1167.90013	946.17561	-382.86111	-1227.37729	1077.05588	-390.01084	-1222.08731	962.76361	-381.47512	-1136.60063	1075.07692	-757.45529	-1130.22409	933.15672	-756.62775	-1244.42954	1072.39012	-795.81227	-1238.30447	930.86965	-784.82203	-1105.28856	1238.71645	-467.37042	-1284.64899	1304.23394	-534.60194	-1102.49085	1239.85671	-713.76424	-1286.64040	1306.42073	-652.42613	-1265.55959	1753.26156	-589.72293	-1216.19259	1712.78697	-435.94778	-1212.95384	1721.91740	-747.29281	-1146.29212	1695.03522	-569.19803	-1145.45787	1695.16307	-612.29308	-1193.54925	1583.70938	-373.34073	-1260.36374	1385.41437	-427.41692	-1235.22460	1391.84094	-356.05646	-1174.57216	1280.23603	-340.98432	-1135.52786	1183.44209	-344.83802	-1168.45974	1174.46393	-326.89803	-1186.89941	1569.63415	-808.63419	-1252.09505	1375.59869	-749.52066	-1230.01847	1385.86401	-822.77076	-1174.37373	1305.33767	-845.23419	-1124.88825	1182.59652	-836.03840	-1151.87701	1174.86314	-853.08132	-1204.27358	1178.99208	-494.55381	-1199.04977	1176.39394	-683.84170	-1184.13454	1176.93970	-501.72420	-1186.88242	1179.95717	-664.30512	
